ply
format ascii 1.0
comment Created by Blender 3.0.0 - www.blender.org
element vertex 24
property float x
property float y
property float z
property float nx
property float ny
property float nz
property uchar red
property uchar green
property uchar blue
property uchar alpha
element face 12
property list uchar uint vertex_indices
end_header
1.000000 1.000000 1.000000 -0.000000 1.000000 0.000000 255 237 44 255
-1.000000 1.000000 -1.000000 -0.000000 1.000000 0.000000 55 62 255 255
-1.000000 1.000000 1.000000 -0.000000 1.000000 0.000000 73 255 73 255
-1.000000 1.000000 -1.000000 0.000000 0.000000 -1.000000 55 62 255 255
1.000000 -1.000000 -1.000000 0.000000 0.000000 -1.000000 253 237 58 255
-1.000000 -1.000000 -1.000000 0.000000 0.000000 -1.000000 255 24 23 255
1.000000 1.000000 -1.000000 1.000000 -0.000000 0.000000 20 241 255 255
1.000000 -1.000000 1.000000 1.000000 -0.000000 0.000000 255 237 44 255
1.000000 -1.000000 -1.000000 1.000000 -0.000000 0.000000 253 237 58 255
-1.000000 -1.000000 1.000000 -0.000000 -1.000000 -0.000000 61 242 255 255
1.000000 -1.000000 -1.000000 -0.000000 -1.000000 -0.000000 253 237 58 255
1.000000 -1.000000 1.000000 -0.000000 -1.000000 -0.000000 255 237 44 255
-1.000000 1.000000 1.000000 -1.000000 0.000000 0.000000 73 255 73 255
-1.000000 -1.000000 -1.000000 -1.000000 0.000000 0.000000 255 24 23 255
-1.000000 -1.000000 1.000000 -1.000000 0.000000 0.000000 61 242 255 255
1.000000 1.000000 1.000000 0.000000 -0.000000 1.000000 255 237 44 255
-1.000000 -1.000000 1.000000 0.000000 -0.000000 1.000000 61 242 255 255
1.000000 -1.000000 1.000000 0.000000 -0.000000 1.000000 255 237 44 255
1.000000 1.000000 -1.000000 0.000000 1.000000 0.000000 20 241 255 255
1.000000 1.000000 -1.000000 0.000000 0.000000 -1.000000 20 241 255 255
1.000000 1.000000 1.000000 1.000000 -0.000000 0.000000 255 237 44 255
-1.000000 -1.000000 -1.000000 0.000000 -1.000000 0.000000 255 24 23 255
-1.000000 1.000000 -1.000000 -1.000000 0.000000 0.000000 55 62 255 255
-1.000000 1.000000 1.000000 0.000000 0.000000 1.000000 73 255 73 255
3 0 1 2
3 3 4 5
3 6 7 8
3 9 10 11
3 12 13 14
3 15 16 17
3 0 18 1
3 3 19 4
3 6 20 7
3 9 21 10
3 12 22 13
3 15 23 16
