ply
format ascii 1.0
comment Created in Blender version 4.3.0
element vertex 233
property float x
property float y
property float z
property uchar red
property uchar green
property uchar blue
property uchar alpha
element face 446
property list uchar uint vertex_indices
end_header
1 -1 -1.5211291 30 30 30 255
1 1 -1.5211291 199 199 199 255
1 -1 1.5211291 199 199 199 255
1 1 1.5211291 30 30 30 255
-1 -1 -1.5211291 30 30 30 255
-1 1 -1.5211291 199 199 199 255
-1 -1 1.5211291 199 199 199 255
-1 1 1.5211291 30 30 30 255
0 1 2.754407 30 30 30 255
-0.19509032 0.9807853 2.754407 30 30 30 255
-0.38268346 0.92387956 2.754407 30 30 30 255
-0.55557024 0.83146966 2.754407 30 30 30 255
-0.70710677 0.7071068 2.754407 30 30 30 255
-0.8314696 0.5555703 2.754407 30 30 30 255
-0.9238795 0.3826835 2.754407 30 30 30 255
-0.98078525 0.19509037 2.754407 30 30 30 255
-1 4.371139e-08 2.754407 30 30 30 255
-0.98078525 -0.19509028 2.754407 30 30 30 255
-0.9238795 -0.38268343 2.754407 30 30 30 255
-0.8314696 -0.5555702 2.754407 30 30 30 255
-0.70710677 -0.7071067 2.754407 30 30 30 255
-0.55557024 -0.83146954 2.754407 30 30 30 255
-0.38268346 -0.92387944 2.754407 30 30 30 255
-0.19509032 -0.9807852 2.754407 30 30 30 255
0 -0.99999994 2.754407 30 30 30 255
0.19509032 -0.9807852 2.754407 30 30 30 255
0.38268346 -0.92387944 2.754407 30 30 30 255
0.55557024 -0.83146954 2.754407 30 30 30 255
0.70710677 -0.7071067 2.754407 30 30 30 255
0.8314696 -0.5555702 2.754407 30 30 30 255
0.9238795 -0.38268343 2.754407 30 30 30 255
0.98078525 -0.19509028 2.754407 30 30 30 255
1 4.371139e-08 2.754407 30 30 30 255
0.98078525 0.19509037 2.754407 30 30 30 255
0.9238795 0.3826835 2.754407 30 30 30 255
0.8314696 0.5555703 2.754407 30 30 30 255
0.70710677 0.7071068 2.754407 30 30 30 255
0.55557024 0.83146966 2.754407 30 30 30 255
0.38268346 0.92387956 2.754407 30 30 30 255
0.19509032 0.9807853 2.754407 30 30 30 255
0 -4.371139e-08 0.75440705 199 199 199 255
-0.5 0.86052763 0.1 30 30 30 255
-0.5 1.5394725 0.1 30 30 30 255
-0.519509 0.86052763 0.09807853 30 30 30 255
-0.519509 1.5394725 0.09807853 30 30 30 255
-0.5382683 0.86052763 0.09238795 30 30 30 255
-0.5382683 1.5394725 0.09238795 30 30 30 255
-0.555557 0.86052763 0.08314696 30 30 30 255
-0.555557 1.5394725 0.08314696 30 30 30 255
-0.57071066 0.86052763 0.07071068 30 30 30 255
-0.57071066 1.5394725 0.07071068 30 30 30 255
-0.5831469 0.86052763 0.055557024 30 30 30 255
-0.5831469 1.5394725 0.055557024 30 30 30 255
-0.592388 0.86052763 0.038268346 30 30 30 255
-0.592388 1.5394725 0.038268346 30 30 30 255
-0.59807855 0.86052763 0.019509032 30 30 30 255
-0.59807855 1.5394725 0.019509032 30 30 30 255
-0.6 0.86052763 0 30 30 30 255
-0.6 1.5394725 0 30 30 30 255
-0.59807855 0.86052763 -0.019509032 30 30 30 255
-0.59807855 1.5394725 -0.019509032 30 30 30 255
-0.592388 0.86052763 -0.038268346 30 30 30 255
-0.592388 1.5394725 -0.038268346 30 30 30 255
-0.5831469 0.86052763 -0.055557024 30 30 30 255
-0.5831469 1.5394725 -0.055557024 30 30 30 255
-0.57071066 0.86052763 -0.07071068 30 30 30 255
-0.57071066 1.5394725 -0.07071068 30 30 30 255
-0.555557 0.86052763 -0.08314696 30 30 30 255
-0.555557 1.5394725 -0.08314696 30 30 30 255
-0.5382683 0.86052763 -0.09238795 30 30 30 255
-0.5382683 1.5394725 -0.09238795 30 30 30 255
-0.519509 0.86052763 -0.09807853 30 30 30 255
-0.519509 1.5394725 -0.09807853 30 30 30 255
-0.5 0.86052763 -0.1 30 30 30 255
-0.5 1.5394725 -0.1 30 30 30 255
-0.48049098 0.86052763 -0.09807853 30 30 30 255
-0.48049098 1.5394725 -0.09807853 30 30 30 255
-0.46173164 0.86052763 -0.09238795 30 30 30 255
-0.46173164 1.5394725 -0.09238795 30 30 30 255
-0.444443 0.86052763 -0.08314696 30 30 30 255
-0.444443 1.5394725 -0.08314696 30 30 30 255
-0.4292893 0.86052763 -0.07071068 30 30 30 255
-0.4292893 1.5394725 -0.07071068 30 30 30 255
-0.41685304 0.86052763 -0.055557024 30 30 30 255
-0.41685304 1.5394725 -0.055557024 30 30 30 255
-0.40761206 0.86052763 -0.038268346 30 30 30 255
-0.40761206 1.5394725 -0.038268346 30 30 30 255
-0.40192148 0.86052763 -0.019509032 30 30 30 255
-0.40192148 1.5394725 -0.019509032 30 30 30 255
-0.4 0.86052763 0 30 30 30 255
-0.4 1.5394725 0 30 30 30 255
-0.40192148 0.86052763 0.019509032 30 30 30 255
-0.40192148 1.5394725 0.019509032 30 30 30 255
-0.40761206 0.86052763 0.038268346 30 30 30 255
-0.40761206 1.5394725 0.038268346 30 30 30 255
-0.41685304 0.86052763 0.055557024 30 30 30 255
-0.41685304 1.5394725 0.055557024 30 30 30 255
-0.4292893 0.86052763 0.07071068 30 30 30 255
-0.4292893 1.5394725 0.07071068 30 30 30 255
-0.444443 0.86052763 0.08314696 30 30 30 255
-0.444443 1.5394725 0.08314696 30 30 30 255
-0.46173164 0.86052763 0.09238795 30 30 30 255
-0.46173164 1.5394725 0.09238795 30 30 30 255
-0.48049098 0.86052763 0.09807853 30 30 30 255
-0.48049098 1.5394725 0.09807853 30 30 30 255
0.5 0.86052763 0.1 30 30 30 255
0.5 1.5394725 0.1 30 30 30 255
0.48049098 0.86052763 0.09807853 30 30 30 255
0.48049098 1.5394725 0.09807853 30 30 30 255
0.46173164 0.86052763 0.09238795 30 30 30 255
0.46173164 1.5394725 0.09238795 30 30 30 255
0.444443 0.86052763 0.08314696 30 30 30 255
0.444443 1.5394725 0.08314696 30 30 30 255
0.4292893 0.86052763 0.07071068 30 30 30 255
0.4292893 1.5394725 0.07071068 30 30 30 255
0.41685304 0.86052763 0.055557024 30 30 30 255
0.41685304 1.5394725 0.055557024 30 30 30 255
0.40761206 0.86052763 0.038268346 30 30 30 255
0.40761206 1.5394725 0.038268346 30 30 30 255
0.40192148 0.86052763 0.019509032 30 30 30 255
0.40192148 1.5394725 0.019509032 30 30 30 255
0.4 0.86052763 0 30 30 30 255
0.4 1.5394725 0 30 30 30 255
0.40192148 0.86052763 -0.019509032 30 30 30 255
0.40192148 1.5394725 -0.019509032 30 30 30 255
0.40761206 0.86052763 -0.038268346 30 30 30 255
0.40761206 1.5394725 -0.038268346 30 30 30 255
0.41685304 0.86052763 -0.055557024 30 30 30 255
0.41685304 1.5394725 -0.055557024 30 30 30 255
0.4292893 0.86052763 -0.07071068 30 30 30 255
0.4292893 1.5394725 -0.07071068 30 30 30 255
0.444443 0.86052763 -0.08314696 30 30 30 255
0.444443 1.5394725 -0.08314696 30 30 30 255
0.46173164 0.86052763 -0.09238795 30 30 30 255
0.46173164 1.5394725 -0.09238795 30 30 30 255
0.48049098 0.86052763 -0.09807853 30 30 30 255
0.48049098 1.5394725 -0.09807853 30 30 30 255
0.5 0.86052763 -0.1 30 30 30 255
0.5 1.5394725 -0.1 30 30 30 255
0.519509 0.86052763 -0.09807853 30 30 30 255
0.519509 1.5394725 -0.09807853 30 30 30 255
0.5382683 0.86052763 -0.09238795 30 30 30 255
0.5382683 1.5394725 -0.09238795 30 30 30 255
0.555557 0.86052763 -0.08314696 30 30 30 255
0.555557 1.5394725 -0.08314696 30 30 30 255
0.57071066 0.86052763 -0.07071068 30 30 30 255
0.57071066 1.5394725 -0.07071068 30 30 30 255
0.5831469 0.86052763 -0.055557024 30 30 30 255
0.5831469 1.5394725 -0.055557024 30 30 30 255
0.592388 0.86052763 -0.038268346 30 30 30 255
0.592388 1.5394725 -0.038268346 30 30 30 255
0.59807855 0.86052763 -0.019509032 30 30 30 255
0.59807855 1.5394725 -0.019509032 30 30 30 255
0.6 0.86052763 0 30 30 30 255
0.6 1.5394725 0 30 30 30 255
0.59807855 0.86052763 0.019509032 30 30 30 255
0.59807855 1.5394725 0.019509032 30 30 30 255
0.592388 0.86052763 0.038268346 30 30 30 255
0.592388 1.5394725 0.038268346 30 30 30 255
0.5831469 0.86052763 0.055557024 30 30 30 255
0.5831469 1.5394725 0.055557024 30 30 30 255
0.57071066 0.86052763 0.07071068 30 30 30 255
0.57071066 1.5394725 0.07071068 30 30 30 255
0.555557 0.86052763 0.08314696 30 30 30 255
0.555557 1.5394725 0.08314696 30 30 30 255
0.5382683 0.86052763 0.09238795 30 30 30 255
0.5382683 1.5394725 0.09238795 30 30 30 255
0.519509 0.86052763 0.09807853 30 30 30 255
0.519509 1.5394725 0.09807853 30 30 30 255
0.5930329 1.5582657 0.1 30 30 30 255
-0.5930329 1.5582657 0.1 30 30 30 255
0.5930329 1.5387567 0.09807853 30 30 30 255
-0.5930329 1.5387566 0.09807853 30 30 30 255
0.5930329 1.5199974 0.09238795 30 30 30 255
-0.5930329 1.5199974 0.09238795 30 30 30 255
0.5930329 1.5027087 0.08314696 30 30 30 255
-0.5930329 1.5027087 0.08314696 30 30 30 255
0.5930329 1.487555 0.07071068 30 30 30 255
-0.5930329 1.487555 0.07071068 30 30 30 255
0.5930329 1.4751188 0.055557024 30 30 30 255
-0.5930329 1.4751188 0.055557024 30 30 30 255
0.5930329 1.4658778 0.038268346 30 30 30 255
-0.5930329 1.4658778 0.038268346 30 30 30 255
0.5930329 1.4601872 0.019509032 30 30 30 255
-0.5930329 1.4601872 0.019509032 30 30 30 255
0.5930329 1.4582657 0 30 30 30 255
-0.5930329 1.4582657 0 30 30 30 255
0.5930329 1.4601872 -0.019509032 30 30 30 255
-0.5930329 1.4601872 -0.019509032 30 30 30 255
0.5930329 1.4658778 -0.038268346 30 30 30 255
-0.5930329 1.4658778 -0.038268346 30 30 30 255
0.5930329 1.4751188 -0.055557024 30 30 30 255
-0.5930329 1.4751188 -0.055557024 30 30 30 255
0.5930329 1.487555 -0.07071068 30 30 30 255
-0.5930329 1.487555 -0.07071068 30 30 30 255
0.5930329 1.5027087 -0.08314696 30 30 30 255
-0.5930329 1.5027087 -0.08314696 30 30 30 255
0.5930329 1.5199974 -0.09238795 30 30 30 255
-0.5930329 1.5199974 -0.09238795 30 30 30 255
0.5930329 1.5387567 -0.09807853 30 30 30 255
-0.5930329 1.5387566 -0.09807853 30 30 30 255
0.5930329 1.5582657 -0.1 30 30 30 255
-0.5930329 1.5582657 -0.1 30 30 30 255
0.5930329 1.5777748 -0.09807853 30 30 30 255
-0.5930329 1.5777746 -0.09807853 30 30 30 255
0.5930329 1.596534 -0.09238795 30 30 30 255
-0.5930329 1.596534 -0.09238795 30 30 30 255
0.5930329 1.6138227 -0.08314696 30 30 30 255
-0.5930329 1.6138227 -0.08314696 30 30 30 255
0.5930329 1.6289763 -0.07071068 30 30 30 255
-0.5930329 1.6289763 -0.07071068 30 30 30 255
0.5930329 1.6414126 -0.055557024 30 30 30 255
-0.5930329 1.6414126 -0.055557024 30 30 30 255
0.5930329 1.6506536 -0.038268346 30 30 30 255
-0.5930329 1.6506536 -0.038268346 30 30 30 255
0.5930329 1.6563442 -0.019509032 30 30 30 255
-0.5930329 1.6563442 -0.019509032 30 30 30 255
0.5930329 1.6582657 0 30 30 30 255
-0.5930329 1.6582657 0 30 30 30 255
0.5930329 1.6563442 0.019509032 30 30 30 255
-0.5930329 1.6563442 0.019509032 30 30 30 255
0.5930329 1.6506536 0.038268346 30 30 30 255
-0.5930329 1.6506536 0.038268346 30 30 30 255
0.5930329 1.6414126 0.055557024 30 30 30 255
-0.5930329 1.6414126 0.055557024 30 30 30 255
0.5930329 1.6289763 0.07071068 30 30 30 255
-0.5930329 1.6289763 0.07071068 30 30 30 255
0.5930329 1.6138227 0.08314696 30 30 30 255
-0.5930329 1.6138227 0.08314696 30 30 30 255
0.5930329 1.596534 0.09238795 30 30 30 255
-0.5930329 1.596534 0.09238795 30 30 30 255
0.5930329 1.5777748 0.09807853 30 30 30 255
-0.5930329 1.5777746 0.09807853 30 30 30 255
3 1 2 0
3 3 6 2
3 7 4 6
3 5 0 4
3 6 0 2
3 3 5 7
3 1 3 2
3 3 7 6
3 7 5 4
3 5 1 0
3 6 4 0
3 3 1 5
3 8 40 9
3 9 40 10
3 10 40 11
3 11 40 12
3 12 40 13
3 13 40 14
3 14 40 15
3 15 40 16
3 16 40 17
3 17 40 18
3 18 40 19
3 19 40 20
3 20 40 21
3 21 40 22
3 22 40 23
3 23 40 24
3 24 40 25
3 25 40 26
3 26 40 27
3 27 40 28
3 28 40 29
3 29 40 30
3 30 40 31
3 31 40 32
3 32 40 33
3 33 40 34
3 34 40 35
3 35 40 36
3 36 40 37
3 37 40 38
3 23 31 39
3 38 40 39
3 39 40 8
3 39 8 9
3 9 10 11
3 11 12 13
3 13 14 15
3 15 16 17
3 17 18 19
3 19 20 21
3 21 22 23
3 23 24 25
3 25 26 27
3 27 28 29
3 29 30 31
3 31 32 33
3 33 34 35
3 35 36 37
3 37 38 39
3 39 9 15
3 9 11 15
3 11 13 15
3 15 17 23
3 17 19 23
3 19 21 23
3 23 25 31
3 25 27 31
3 27 29 31
3 31 33 39
3 33 35 39
3 35 37 39
3 39 15 23
3 42 43 41
3 44 45 43
3 46 47 45
3 48 49 47
3 50 51 49
3 52 53 51
3 54 55 53
3 56 57 55
3 58 59 57
3 60 61 59
3 62 63 61
3 64 65 63
3 66 67 65
3 68 69 67
3 70 71 69
3 72 73 71
3 74 75 73
3 76 77 75
3 78 79 77
3 80 81 79
3 82 83 81
3 84 85 83
3 86 87 85
3 88 89 87
3 90 91 89
3 92 93 91
3 94 95 93
3 96 97 95
3 98 99 97
3 100 101 99
3 78 62 46
3 102 103 101
3 104 41 103
3 71 87 103
3 42 44 43
3 44 46 45
3 46 48 47
3 48 50 49
3 50 52 51
3 52 54 53
3 54 56 55
3 56 58 57
3 58 60 59
3 60 62 61
3 62 64 63
3 64 66 65
3 66 68 67
3 68 70 69
3 70 72 71
3 72 74 73
3 74 76 75
3 76 78 77
3 78 80 79
3 80 82 81
3 82 84 83
3 84 86 85
3 86 88 87
3 88 90 89
3 90 92 91
3 92 94 93
3 94 96 95
3 96 98 97
3 98 100 99
3 100 102 101
3 46 44 42
3 42 104 46
3 104 102 46
3 102 100 98
3 98 96 94
3 94 92 90
3 90 88 94
3 88 86 94
3 86 84 82
3 82 80 78
3 78 76 70
3 76 74 70
3 74 72 70
3 70 68 66
3 66 64 62
3 62 60 54
3 60 58 54
3 58 56 54
3 54 52 50
3 50 48 46
3 102 98 46
3 98 94 46
3 86 82 94
3 82 78 94
3 70 66 78
3 66 62 78
3 54 50 62
3 50 46 62
3 46 94 78
3 102 104 103
3 104 42 41
3 103 41 43
3 43 45 47
3 47 49 51
3 51 53 55
3 55 57 59
3 59 61 63
3 63 65 67
3 67 69 71
3 71 73 75
3 75 77 79
3 79 81 83
3 83 85 87
3 87 89 91
3 91 93 95
3 95 97 99
3 99 101 103
3 103 43 55
3 43 47 55
3 47 51 55
3 55 59 71
3 59 63 71
3 63 67 71
3 71 75 87
3 75 79 87
3 79 83 87
3 87 91 103
3 91 95 103
3 95 99 103
3 103 55 71
3 106 107 105
3 108 109 107
3 110 111 109
3 112 113 111
3 114 115 113
3 116 117 115
3 118 119 117
3 120 121 119
3 122 123 121
3 124 125 123
3 126 127 125
3 128 129 127
3 130 131 129
3 132 133 131
3 134 135 133
3 136 137 135
3 138 139 137
3 140 141 139
3 142 143 141
3 144 145 143
3 146 147 145
3 148 149 147
3 150 151 149
3 152 153 151
3 154 155 153
3 156 157 155
3 158 159 157
3 160 161 159
3 162 163 161
3 164 165 163
3 142 126 110
3 166 167 165
3 168 105 167
3 135 151 167
3 106 108 107
3 108 110 109
3 110 112 111
3 112 114 113
3 114 116 115
3 116 118 117
3 118 120 119
3 120 122 121
3 122 124 123
3 124 126 125
3 126 128 127
3 128 130 129
3 130 132 131
3 132 134 133
3 134 136 135
3 136 138 137
3 138 140 139
3 140 142 141
3 142 144 143
3 144 146 145
3 146 148 147
3 148 150 149
3 150 152 151
3 152 154 153
3 154 156 155
3 156 158 157
3 158 160 159
3 160 162 161
3 162 164 163
3 164 166 165
3 110 108 106
3 106 168 110
3 168 166 110
3 166 164 162
3 162 160 158
3 158 156 154
3 154 152 158
3 152 150 158
3 150 148 146
3 146 144 142
3 142 140 134
3 140 138 134
3 138 136 134
3 134 132 130
3 130 128 126
3 126 124 118
3 124 122 118
3 122 120 118
3 118 116 114
3 114 112 110
3 166 162 110
3 162 158 110
3 150 146 158
3 146 142 158
3 134 130 142
3 130 126 142
3 118 114 126
3 114 110 126
3 110 158 142
3 166 168 167
3 168 106 105
3 167 105 107
3 107 109 111
3 111 113 115
3 115 117 119
3 119 121 123
3 123 125 127
3 127 129 131
3 131 133 135
3 135 137 139
3 139 141 143
3 143 145 147
3 147 149 151
3 151 153 155
3 155 157 159
3 159 161 163
3 163 165 167
3 167 107 119
3 107 111 119
3 111 115 119
3 119 123 135
3 123 127 135
3 127 131 135
3 135 139 151
3 139 143 151
3 143 147 151
3 151 155 167
3 155 159 167
3 159 163 167
3 167 119 135
3 170 171 169
3 172 173 171
3 174 175 173
3 176 177 175
3 178 179 177
3 180 181 179
3 182 183 181
3 184 185 183
3 186 187 185
3 188 189 187
3 190 191 189
3 192 193 191
3 194 195 193
3 196 197 195
3 198 199 197
3 200 201 199
3 202 203 201
3 204 205 203
3 206 207 205
3 208 209 207
3 210 211 209
3 212 213 211
3 214 215 213
3 216 217 215
3 218 219 217
3 220 221 219
3 222 223 221
3 224 225 223
3 226 227 225
3 228 229 227
3 206 190 174
3 230 231 229
3 232 169 231
3 199 215 231
3 170 172 171
3 172 174 173
3 174 176 175
3 176 178 177
3 178 180 179
3 180 182 181
3 182 184 183
3 184 186 185
3 186 188 187
3 188 190 189
3 190 192 191
3 192 194 193
3 194 196 195
3 196 198 197
3 198 200 199
3 200 202 201
3 202 204 203
3 204 206 205
3 206 208 207
3 208 210 209
3 210 212 211
3 212 214 213
3 214 216 215
3 216 218 217
3 218 220 219
3 220 222 221
3 222 224 223
3 224 226 225
3 226 228 227
3 228 230 229
3 174 172 170
3 170 232 174
3 232 230 174
3 230 228 226
3 226 224 222
3 222 220 218
3 218 216 222
3 216 214 222
3 214 212 210
3 210 208 206
3 206 204 198
3 204 202 198
3 202 200 198
3 198 196 194
3 194 192 190
3 190 188 182
3 188 186 182
3 186 184 182
3 182 180 178
3 178 176 174
3 230 226 174
3 226 222 174
3 214 210 222
3 210 206 222
3 198 194 206
3 194 190 206
3 182 178 190
3 178 174 190
3 174 222 206
3 230 232 231
3 232 170 169
3 231 169 171
3 171 173 175
3 175 177 179
3 179 181 183
3 183 185 187
3 187 189 191
3 191 193 195
3 195 197 199
3 199 201 203
3 203 205 207
3 207 209 211
3 211 213 215
3 215 217 219
3 219 221 223
3 223 225 227
3 227 229 231
3 231 171 183
3 171 175 183
3 175 179 183
3 183 187 199
3 187 191 199
3 191 195 199
3 199 203 215
3 203 207 215
3 207 211 215
3 215 219 231
3 219 223 231
3 223 227 231
3 231 183 199
