ply
format ascii 1.0
comment Created by Blender 3.0.0 - www.blender.org
element vertex 97
property float x
property float y
property float z
property uchar red
property uchar green
property uchar blue
property uchar alpha
element face 157
property list uchar uint vertex_indices
end_header
0.000000 1.746041 0.255372 0 89 255 255
0.000000 2.256785 0.000000 0 89 255 255
-0.049821 1.746041 0.250465 0 89 255 255
-0.097727 1.746041 0.235933 1 89 255 255
-0.141877 1.746041 0.212334 1 89 255 255
-0.180575 1.746041 0.180575 1 89 255 255
-0.212334 1.746041 0.141877 0 89 255 255
-0.235933 1.746041 0.097727 0 89 255 255
-0.250465 1.746041 0.049821 0 89 255 255
-0.255372 1.746041 -0.000000 0 89 255 255
-0.250465 1.746041 -0.049821 0 89 255 255
-0.235933 1.746041 -0.097727 0 89 255 255
-0.212334 1.746041 -0.141877 0 89 255 255
-0.180575 1.746041 -0.180575 0 89 255 255
-0.141877 1.746041 -0.212334 0 89 255 255
-0.097727 1.746041 -0.235933 0 89 255 255
-0.049821 1.746041 -0.250465 0 89 255 255
0.000000 1.746041 -0.255372 0 89 255 255
0.049821 1.746041 -0.250465 0 89 255 255
0.097727 1.746041 -0.235933 0 89 255 255
0.141877 1.746041 -0.212334 0 89 255 255
0.180575 1.746041 -0.180575 0 89 255 255
0.212334 1.746041 -0.141877 0 89 255 255
0.235933 1.746041 -0.097727 0 89 255 255
0.250465 1.746041 -0.049821 0 89 255 255
0.255372 1.746041 0.000000 0 89 255 255
0.250465 1.746041 0.049821 0 89 255 255
0.235933 1.746041 0.097727 1 89 255 255
0.212334 1.746041 0.141877 1 89 255 255
0.180575 1.746041 0.180575 1 89 255 255
0.141877 1.746041 0.212334 1 89 255 255
0.097727 1.746041 0.235933 1 89 255 255
0.049821 1.746041 0.250465 1 89 255 255
0.000000 2.000000 0.040000 0 89 255 255
-0.007804 0.000000 0.039231 0 89 255 255
0.000000 0.000000 0.040000 0 89 255 255
-0.007804 2.000000 0.039231 0 89 255 255
-0.015307 0.000000 0.036955 0 89 255 255
-0.015307 2.000000 0.036955 0 89 255 255
-0.022223 0.000000 0.033259 0 89 255 255
-0.022223 2.000000 0.033259 0 89 255 255
-0.028284 0.000000 0.028284 0 89 255 255
-0.028284 2.000000 0.028284 0 89 255 255
-0.033259 0.000000 0.022223 0 89 255 255
-0.033259 2.000000 0.022223 0 89 255 255
-0.036955 0.000000 0.015307 0 89 255 255
-0.036955 2.000000 0.015307 0 89 255 255
-0.039231 0.000000 0.007804 0 89 255 255
-0.039231 2.000000 0.007804 0 89 255 255
-0.040000 0.000000 -0.000000 0 89 255 255
-0.040000 2.000000 -0.000000 0 89 255 255
-0.039231 0.000000 -0.007804 0 89 255 255
-0.039231 2.000000 -0.007804 0 89 255 255
-0.036955 0.000000 -0.015307 0 89 255 255
-0.036955 2.000000 -0.015307 0 89 255 255
-0.033259 0.000000 -0.022223 1 89 255 255
-0.033259 2.000000 -0.022223 4 89 255 255
-0.028284 0.000000 -0.028284 12 90 255 255
-0.028284 2.000000 -0.028284 0 89 255 255
-0.022223 0.000000 -0.033259 1 89 255 255
-0.022223 2.000000 -0.033259 0 89 255 255
-0.015307 0.000000 -0.036955 2 89 255 255
-0.015307 2.000000 -0.036955 3 90 255 255
-0.007804 0.000000 -0.039231 37 96 255 255
-0.007804 2.000000 -0.039231 0 89 255 255
0.000000 0.000000 -0.040000 15 90 255 255
0.000000 2.000000 -0.040000 0 89 255 255
0.007804 0.000000 -0.039231 0 89 255 255
0.007804 2.000000 -0.039231 0 89 255 255
0.015307 0.000000 -0.036955 0 89 255 255
0.015307 2.000000 -0.036955 0 89 255 255
0.022223 0.000000 -0.033259 0 89 255 255
0.022223 2.000000 -0.033259 0 89 255 255
0.028284 0.000000 -0.028284 0 89 255 255
0.028284 2.000000 -0.028284 0 89 255 255
0.033259 0.000000 -0.022223 0 89 255 255
0.033259 2.000000 -0.022223 0 89 255 255
0.036955 0.000000 -0.015307 0 89 255 255
0.036955 2.000000 -0.015307 0 89 255 255
0.039231 0.000000 -0.007804 0 89 255 255
0.039231 2.000000 -0.007804 0 89 255 255
0.040000 0.000000 0.000000 0 89 255 255
0.040000 2.000000 0.000000 0 89 255 255
0.039231 0.000000 0.007804 0 89 255 255
0.039231 2.000000 0.007804 0 89 255 255
0.036955 0.000000 0.015307 0 89 255 255
0.036955 2.000000 0.015307 0 89 255 255
0.033259 0.000000 0.022223 0 89 255 255
0.033259 2.000000 0.022223 0 89 255 255
0.028284 0.000000 0.028284 0 89 255 255
0.028284 2.000000 0.028284 0 89 255 255
0.022223 0.000000 0.033259 0 89 255 255
0.022223 2.000000 0.033259 0 89 255 255
0.015307 0.000000 0.036955 0 89 255 255
0.015307 2.000000 0.036955 0 89 255 255
0.007804 0.000000 0.039231 0 89 255 255
0.007804 2.000000 0.039231 0 89 255 255
3 0 1 2
3 2 1 3
3 3 1 4
3 4 1 5
3 5 1 6
3 6 1 7
3 7 1 8
3 8 1 9
3 9 1 10
3 10 1 11
3 11 1 12
3 12 1 13
3 13 1 14
3 14 1 15
3 15 1 16
3 16 1 17
3 17 1 18
3 18 1 19
3 19 1 20
3 20 1 21
3 21 1 22
3 22 1 23
3 23 1 24
3 24 1 25
3 25 1 26
3 26 1 27
3 27 1 28
3 28 1 29
3 29 1 30
3 30 1 31
32 0 2 3 4 5 6 7 8 9 10 11 12 13 14 15 16 17 18 19 20 21 22 23 24 25 26 27 28 29 30 31 32
3 31 1 32
3 32 1 0
3 33 34 35
3 36 37 34
3 38 39 37
3 40 41 39
3 42 43 41
3 44 45 43
3 46 47 45
3 48 49 47
3 50 51 49
3 52 53 51
3 54 55 53
3 56 57 55
3 58 59 57
3 60 61 59
3 62 63 61
3 64 65 63
3 66 67 65
3 68 69 67
3 70 71 69
3 72 73 71
3 74 75 73
3 76 77 75
3 78 79 77
3 80 81 79
3 82 83 81
3 84 85 83
3 86 87 85
3 88 89 87
3 90 91 89
3 92 93 91
3 86 70 54
3 94 95 93
3 96 35 95
3 47 63 79
3 33 36 34
3 36 38 37
3 38 40 39
3 40 42 41
3 42 44 43
3 44 46 45
3 46 48 47
3 48 50 49
3 50 52 51
3 52 54 53
3 54 56 55
3 56 58 57
3 58 60 59
3 60 62 61
3 62 64 63
3 64 66 65
3 66 68 67
3 68 70 69
3 70 72 71
3 72 74 73
3 74 76 75
3 76 78 77
3 78 80 79
3 80 82 81
3 82 84 83
3 84 86 85
3 86 88 87
3 88 90 89
3 90 92 91
3 92 94 93
3 38 36 94
3 36 33 94
3 33 96 94
3 94 92 90
3 90 88 94
3 88 86 94
3 86 84 82
3 82 80 78
3 78 76 74
3 74 72 70
3 70 68 66
3 66 64 62
3 62 60 58
3 58 56 54
3 54 52 50
3 50 48 46
3 46 44 42
3 42 40 38
3 86 82 70
3 82 78 70
3 78 74 70
3 70 66 62
3 62 58 70
3 58 54 70
3 54 50 38
3 50 46 38
3 46 42 38
3 38 94 86
3 38 86 54
3 94 96 95
3 96 33 35
3 95 35 34
3 34 37 39
3 39 41 43
3 43 45 47
3 47 49 51
3 51 53 55
3 55 57 59
3 59 61 63
3 63 65 67
3 67 69 71
3 71 73 75
3 75 77 79
3 79 81 83
3 83 85 79
3 85 87 79
3 87 89 91
3 91 93 87
3 93 95 87
3 95 34 47
3 34 39 47
3 39 43 47
3 47 51 55
3 55 59 47
3 59 63 47
3 63 67 79
3 67 71 79
3 71 75 79
3 79 87 95
3 95 47 79
