ply
format ascii 1.0
comment Created in Blender version 4.3.0
element vertex 272
property float x
property float y
property float z
property float nx
property float ny
property float nz
property float s
property float t
element face 218
property list uchar uint vertex_indices
end_header
-0.25519902 0.04236617 -0.28383783 0.546005 0.6354052 -0.5460208 0.46588248 0.9866961
0.2463587 0.55927694 -0.28383765 -0.5460049 -0.635405 -0.5460211 0.018072214 0.5388858
0.24635863 0.042366125 -0.28383777 -0.546002 0.63542384 -0.546002 0.46588248 0.5388858
-0.29744118 0.5942369 -0.3150877 -0.30863675 0.3131364 -0.89815855 0.72714746 0.016205437
-0.25519902 0.042366177 -0.31514782 0.29709837 0.34311697 -0.89106864 0.7572226 0.49075988
-0.29741055 0.0067957784 -0.31506783 -0.31292933 -0.3405496 -0.88662356 0.7270079 0.52474487
0.28850877 0.59549594 -0.31514764 0.37336826 0.39421833 -0.8397547 0.50311273 0.013847564
-0.25519896 0.55927694 -0.3151477 0.29623622 -0.344834 -0.8906928 0.03650957 0.047230374
-0.29744118 0.5942369 -0.3150877 -0.30863675 0.3131364 -0.89815855 0.00603954 0.01676035
0.2879141 0.0066335723 -0.31386515 0.2758218 -0.29600245 -0.9144971 0.50252944 0.0146325575
0.2463587 0.55927694 -0.31514764 -0.29559457 -0.34633106 -0.890325 0.03658802 0.047238868
0.28850877 0.59549594 -0.31514764 0.37336826 0.39421833 -0.8397547 0.006155289 0.016574629
-0.25519902 0.042366177 -0.31514782 0.29709837 0.34311697 -0.89106864 0.75705606 0.04388105
0.24635863 0.042366125 -0.28383777 -0.546002 0.63542384 -0.546002 0.7817419 0.4939786
0.24635863 0.042366132 -0.31514776 -0.28586772 0.3326899 -0.8986641 0.75705606 0.49069914
-0.25519896 0.55927694 -0.3151477 0.29623622 -0.344834 -0.8906928 0.7570295 0.044239003
-0.25519902 0.04236617 -0.28383783 0.546005 0.6354052 -0.5460208 0.7816068 0.49380276
0.2463587 0.55927694 -0.31514764 -0.29559457 -0.34633106 -0.890325 0.47118583 0.04650238
-0.25519896 0.55927694 -0.2838377 0.5460021 -0.6354237 -0.5460022 0.03650957 0.06986427
0.24635863 0.042366132 -0.31514776 -0.28586772 0.3326899 -0.8986641 0.4714156 0.046042178
0.2463587 0.55927694 -0.28383765 -0.5460049 -0.635405 -0.5460211 0.036287464 0.0713731
0.2879141 0.0066335723 -0.31386515 0.2758218 -0.29600245 -0.9144971 0.72707766 0.5247084
-0.29741055 0.0067957784 -0.31506783 -0.31292933 -0.3405496 -0.88662356 0.72715944 0.01622449
-0.17187577 0.5310833 -0.29563913 0.13793603 0.5961196 -0.79095834 0.8148415 0.50769114
-0.038315695 0.28647715 -0.29469243 -0.5059644 -0.4843077 -0.7137549 0.86819017 0.28056687
-0.24199173 0.47980526 -0.29469234 -0.7100659 -0.107482985 -0.6958835 0.88309085 0.50525045
-0.24869163 0.48519632 -0.27836046 -0.8771509 0.17242745 -0.44819078 0.8836718 0.51873034
0.24088547 0.113419265 -0.27933493 0.84155023 -0.06256399 -0.53654355 0.78898346 0.035129443
-0.17652561 0.5448673 -0.27933472 -0.01941363 0.7607848 -0.6487137 0.80208015 0.5181605
0.24088547 0.113419265 -0.27933493 0.84155023 -0.06256399 -0.53654355 0.7965575 0.028687252
0.17344208 0.050073497 -0.29469255 -0.12979645 -0.7470853 -0.65193295 0.87151694 0.02299301
0.23064362 0.11831952 -0.2956393 0.6193508 0.14714932 -0.7712014 0.80169654 0.042896703
-0.042458024 0.28921938 -0.27836055 -0.7102437 -0.70123833 -0.061794728 0.8804283 0.28401718
-0.27329448 0.5508278 0.24417816 -0.5460221 -0.63541394 -0.5459937 0.9281286 0.9873378
-0.27329445 0.049270198 -0.27273273 -0.546022 0.63541394 0.5459937 0.48031822 0.5395275
-0.2732945 0.049270112 0.24417807 -0.546003 0.635414 -0.5460126 0.9281286 0.5395275
-0.30460447 0.5949873 0.2798397 -0.862817 0.36670738 0.34795472 0.9895698 0.4863226
-0.3046044 0.55082786 -0.27273262 -0.89030427 -0.3453761 0.29677176 0.9576712 0.96365535
-0.30460447 0.5508278 0.24417816 -0.890305 -0.34536955 -0.29677734 0.9572153 0.5177723
-0.30460444 0.0071200873 -0.30895174 -0.86022115 -0.3512349 -0.36966684 0.71667755 0.5225037
-0.3046044 0.55082786 -0.27273262 -0.89030427 -0.3453761 0.29677176 0.6802515 0.05357535
-0.30460444 0.59454995 -0.30902267 -0.85686755 0.35262063 -0.3760807 0.71595454 0.01672096
-0.30460447 0.0060759876 0.2793531 -0.86245376 -0.3851664 0.32836017 0.57268995 0.02202041
-0.30460444 0.0492702 -0.27273273 -0.8903055 0.34536916 0.29677638 0.6040655 0.49803048
-0.30460444 0.0071200873 -0.30895174 -0.86022115 -0.3512349 -0.36966684 0.5729514 0.52944
-0.30460447 0.5508278 0.24417816 -0.890305 -0.34536955 -0.29677734 0.94209254 0.048396844
-0.2732945 0.049270112 0.24417807 -0.546003 0.635414 -0.5460126 0.97186273 0.4859123
-0.3046045 0.049270112 0.24417807 -0.8903054 0.34537455 -0.29677042 0.9458526 0.48564696
-0.27329448 0.5508278 0.24417816 -0.5460221 -0.63541394 -0.5459937 0.93400145 0.5177723
-0.30460444 0.0492702 -0.27273273 -0.8903055 0.34536916 0.29677638 0.6804811 0.48493358
-0.27329442 0.55082786 -0.27273262 -0.5460032 -0.635414 0.54601246 0.65330637 0.05375593
-0.3046045 0.049270112 0.24417807 -0.8903054 0.34537455 -0.29677042 0.60195667 0.05186814
-0.27329445 0.049270198 -0.27273273 -0.546022 0.63541394 0.5459937 0.62728745 0.49792063
-0.29744124 4.9022936e-05 -0.30895174 -0.32280558 -0.8809224 -0.34608144 0.72280526 0.52896667
-0.29744124 4.9022936e-05 -0.30895174 -0.32280558 -0.8809224 -0.34608144 0.56490624 0.5291628
-0.2974413 4.8940965e-05 0.28039706 -0.30477434 -0.8911555 0.33608723 0.56376165 0.022002518
-0.30460447 0.0060759876 0.2793531 -0.86245376 -0.3851664 0.32836017 0.9085821 0.52302665
-0.30460447 0.5949873 0.2798397 -0.862817 0.36670738 0.34795472 0.9045091 0.012072504
-0.2850959 0.46750462 -0.24453896 -0.8175212 -0.16595179 -0.5514698 0.81375825 0.50769114
-0.28414917 0.3339445 6.713346e-05 -0.71176827 0.50786734 0.48523876 0.8671069 0.28056687
-0.28414905 0.5376206 -0.19326088 -0.6506877 0.7513738 0.109740086 0.8820076 0.50525045
-0.2687915 0.4721544 -0.25832295 -0.6318477 0.012766352 -0.7749874 0.8096492 0.52320915
-0.2678172 0.54432046 -0.198652 -0.4063934 0.9078927 -0.10283633 0.88258857 0.51873034
-0.26879168 0.054743286 0.17312497 -0.54333174 -0.8380681 0.04932118 0.7879002 0.035129443
-0.2687915 0.4721544 -0.25832295 -0.6318477 0.012766352 -0.7749874 0.8022349 0.5178791
-0.2678174 0.11702876 0.24335183 -0.4311242 -0.12788978 0.8931831 0.8691912 0.008318495
-0.28509608 0.06498514 0.16822472 -0.7353786 -0.6660878 -0.1246805 0.8006133 0.042896703
-0.26879168 0.054743286 0.17312497 -0.54333174 -0.8380681 0.04932118 0.79645574 0.028583936
-0.2678173 0.3380868 -0.0026750779 -0.061787706 0.71025085 0.7012317 0.8803524 0.28421864
-0.28414926 0.12218665 0.23647074 -0.695463 0.1436233 0.7040621 0.8704337 0.02299301
-0.2551991 0.031358946 0.24417807 0.5459934 -0.63543856 -0.54599357 0.46782905 0.53058946
0.2463586 0.03135899 -0.27273268 -0.5460001 -0.63543546 0.5459906 0.020018738 0.082779095
0.24635854 0.031358905 0.24417813 -0.5460033 -0.63541406 -0.54601234 0.46782905 0.082779095
-0.2551991 4.8944326e-05 0.24417807 0.26548454 -0.926842 -0.26548448 0.5332609 0.054403663
0.28850865 4.8971713e-05 -0.30895168 0.3158213 -0.8664857 -0.38659987 0.716562 0.5222462
-0.25519904 4.9012193e-05 -0.27273273 0.26548052 -0.9268442 0.2654805 0.6803106 0.053614356
-0.29744124 4.9022936e-05 -0.30895174 -0.32280558 -0.8809224 -0.34608144 0.71618104 0.016483862
0.28850865 4.8971713e-05 -0.30895168 0.3158213 -0.8664857 -0.38659987 0.006155289 0.016574629
0.24635854 4.890048e-05 0.24417813 -0.26548395 -0.92684346 -0.26547956 0.4714156 0.046042178
0.2463586 4.8968344e-05 -0.27273268 -0.26547945 -0.9268437 0.26548347 0.03658802 0.047238868
-0.2551991 4.8944326e-05 0.24417807 0.26548454 -0.926842 -0.26548448 0.94213015 0.048389286
0.24635854 0.031358905 0.24417813 -0.5460033 -0.63541406 -0.54601234 0.971863 0.48587036
0.24635854 4.890048e-05 0.24417813 -0.26548395 -0.92684346 -0.26547956 0.945761 0.48580095
-0.25519904 0.03135903 -0.27273273 0.54600966 -0.6354111 0.54600924 0.5100469 0.49934405
-0.2551991 0.031358946 0.24417807 0.5459934 -0.63543856 -0.54599357 0.5100469 0.054403663
0.2463586 4.8968344e-05 -0.27273268 -0.26547945 -0.9268437 0.26548347 0.680822 0.48505643
-0.25519904 0.03135903 -0.27273273 0.54600966 -0.6354111 0.54600924 0.6531271 0.054234773
0.2463586 0.03135899 -0.27273268 -0.5460001 -0.63543546 0.5459906 0.036287464 0.0713731
0.29557976 0.0066335704 -0.30851418 0.8423142 -0.35531434 -0.4052881 0.72299755 0.52893746
0.2955797 0.006076001 0.27935317 0.862898 -0.38154262 0.33140957 0.5024945 0.007215832
0.29557976 0.0066335704 -0.30851418 0.8423142 -0.35531434 -0.4052881 0.006043295 0.009620298
0.2885086 4.8889742e-05 0.28039712 0.3083892 -0.889381 0.33748713 0.9086471 0.5230563
-0.2974413 4.8940965e-05 0.28039706 -0.30477434 -0.8911555 0.33608723 0.90451074 0.012061171
-0.17187586 0.019557575 -0.24453905 0.1136609 -0.8347037 -0.53884214 0.8148415 0.5081281
-0.038315773 0.020504309 6.710924e-05 -0.45150197 -0.78008 0.43315262 0.86819017 0.28100386
-0.24199182 0.020504398 -0.19326098 -0.67752945 -0.73281246 0.06276857 0.88309085 0.5056874
-0.24869172 0.03683629 -0.1986521 -0.88715625 -0.4431392 -0.12876901 0.8836718 0.5191673
0.2408854 0.03586173 0.17312498 0.8374407 -0.5440232 0.05226648 0.78898346 0.03556642
-0.17652567 0.035861984 -0.25832304 -0.019437382 -0.64871824 -0.76078045 0.80208015 0.5185975
0.17859991 0.03683602 0.24335183 0.09136264 -0.42530122 0.9004286 0.8702745 0.0087554725
0.23064356 0.019557327 0.16822474 0.59704095 -0.79607403 -0.09903706 0.80169654 0.04333368
0.2408854 0.03586173 0.17312498 0.8374407 -0.5440232 0.05226648 0.7964025 0.02881428
-0.04245809 0.036836136 -0.0026751012 -0.71134746 -0.062104266 0.70009136 0.8804283 0.28445417
0.17344202 0.020504145 0.23647074 -0.09381743 -0.73345584 0.6732316 0.87151694 0.023429986
0.24617428 0.5703109 0.2441072 -0.5459999 0.6354355 -0.54599065 0.46588248 0.9866961
-0.25538328 0.57031095 -0.27280366 0.54600006 0.63543534 0.5459908 0.018072214 0.5388858
-0.25538334 0.57031095 0.24410714 0.5460034 0.63541424 -0.546012 0.46588248 0.5388858
0.28841656 0.601561 -0.30776355 0.31261006 0.90107685 -0.3005583 0.72714746 0.016205437
0.24617428 0.6016209 0.2441072 -0.2647719 0.9273122 -0.26455203 0.7572226 0.49075988
0.2883858 0.601541 0.2796776 0.30266455 0.8996208 0.31476453 0.7270079 0.52474487
-0.29753336 0.6016209 -0.30902267 -0.3235045 0.8737822 -0.3631106 0.50311273 0.013847564
0.24617434 0.601621 -0.2728036 -0.26490322 0.92719376 0.26483583 0.03650957 0.047230374
0.28841656 0.601561 -0.30776355 0.31261006 0.90107685 -0.3005583 0.00603954 0.01676035
-0.29753342 0.6015609 0.2798397 -0.3158954 0.8944483 0.31650016 0.50252944 0.0146325575
-0.25538328 0.6016209 -0.27280366 0.26542124 0.9268472 0.26552916 0.03658802 0.047238868
-0.29753336 0.6016209 -0.30902267 -0.3235045 0.8737822 -0.3631106 0.006155289 0.016574629
0.24617428 0.6016209 0.2441072 -0.2647719 0.9273122 -0.26455203 0.75705606 0.04388105
-0.25538334 0.57031095 0.24410714 0.5460034 0.63541424 -0.546012 0.7817419 0.4939786
-0.25538334 0.6016209 0.24410714 0.2649491 0.9271983 -0.26477408 0.75705606 0.49069914
0.24617434 0.601621 -0.2728036 -0.26490322 0.92719376 0.26483583 0.7570295 0.044239003
0.24617428 0.5703109 0.2441072 -0.5459999 0.6354355 -0.54599065 0.7816068 0.49380276
-0.25538328 0.6016209 -0.27280366 0.26542124 0.9268472 0.26552916 0.47118583 0.04650238
0.24617434 0.57031095 -0.2728036 -0.54600334 0.63541406 0.5460123 0.03650957 0.06986427
-0.25538334 0.6016209 0.24410714 0.2649491 0.9271983 -0.26477408 0.4714156 0.046042178
-0.25538328 0.57031095 -0.27280366 0.54600006 0.63543534 0.5459908 0.036287464 0.0713731
-0.29744118 0.5942369 -0.3150877 -0.30863675 0.3131364 -0.89815855 0.5031128 0.006619363
-0.30460444 0.59454995 -0.30902267 -0.85686755 0.35262063 -0.3760807 0.5093723 0.010233663
0.28850877 0.59549594 -0.31514764 0.37336826 0.39421833 -0.8397547 0.006039741 0.009531945
-0.30460447 0.5949873 0.2798397 -0.862817 0.36670738 0.34795472 0.5024945 0.007215832
-0.30460444 0.59454995 -0.30902267 -0.85686755 0.35262063 -0.3760807 0.006043295 0.009620298
-0.29753342 0.6015609 0.2798397 -0.3158954 0.8944483 0.31650016 0.72707766 0.5247084
0.2883858 0.601541 0.2796776 0.30266455 0.8996208 0.31476453 0.72715944 0.01622449
0.16285111 0.58211243 -0.24460995 -0.113661274 0.83470345 -0.53884244 0.8148415 0.50769114
0.029291019 0.5811656 -3.824942e-06 0.4515022 0.78008 0.43315247 0.86819017 0.28056687
0.23296706 0.5811656 -0.19333188 0.6775289 0.7328128 0.0627691 0.88309085 0.50525045
0.23966697 0.5648337 -0.19872302 0.88715625 0.44313934 -0.12876882 0.8836718 0.51873034
-0.2499102 0.5658081 0.17305401 -0.8374402 0.54402405 0.052267212 0.78898346 0.035129443
0.16750094 0.565808 -0.25839397 0.019437078 0.6487174 -0.7607811 0.80208015 0.5181605
-0.18762471 0.56483376 0.2432809 -0.091362715 0.42529997 0.9004293 0.8702745 0.008318495
-0.23966835 0.58211255 0.16815378 -0.597041 0.79607403 -0.09903624 0.80169654 0.042896703
-0.2499102 0.5658081 0.17305401 -0.8374402 0.54402405 0.052267212 0.7965575 0.028687252
0.03343334 0.56483376 -0.0027460419 0.71134704 0.062103514 0.7000919 0.8804283 0.28401718
-0.18246682 0.5811657 0.23639981 0.09381699 0.733455 0.67323273 0.87151694 0.02299301
0.26183397 0.042295095 -0.27475452 0.46532232 0.6214497 0.6302979 0.9281286 0.9873378
0.2618339 0.55920583 0.2268032 0.609719 -0.6524202 -0.45010072 0.48031822 0.5395275
0.26183388 0.042294998 0.22680312 0.60970604 0.65243226 -0.45010072 0.9281286 0.5395275
0.29557976 0.0066335704 -0.30851418 0.8423142 -0.35531434 -0.4052881 0.9895698 0.4863226
0.29557982 0.5592059 -0.26435453 0.84912246 -0.43476966 0.29994392 0.9576712 0.96365535
0.2955798 0.04229511 -0.26435453 0.8491242 0.43476918 0.29993966 0.9572153 0.5177723
0.29557982 0.59542495 -0.3065045 0.8766205 0.3855375 -0.28791898 0.71595454 0.01672096
0.29557973 0.55920583 0.23720317 0.9261056 -0.26487622 -0.26864284 0.6804811 0.48493358
0.29557982 0.5592059 -0.26435453 0.84912246 -0.43476966 0.29994392 0.6802515 0.05357535
0.2955797 0.006076001 0.27935317 0.862898 -0.38154262 0.33140957 0.57268995 0.02202041
0.29557973 0.55920583 0.23720317 0.9261056 -0.26487622 -0.26864284 0.6040655 0.49803048
0.29557973 0.5954249 0.2793533 0.8582678 0.38855246 0.33526626 0.5729514 0.52944
0.2955798 0.04229511 -0.26435453 0.8491242 0.43476918 0.29993966 0.94209254 0.048396844
0.26183388 0.042294998 0.22680312 0.60970604 0.65243226 -0.45010072 0.97186273 0.4859123
0.2955797 0.042295013 0.23720308 0.92610526 0.26487452 -0.26864567 0.9458526 0.48564696
0.26183397 0.042295095 -0.27475452 0.46532232 0.6214497 0.6302979 0.93400145 0.5177723
0.2618339 0.55920583 0.2268032 0.609719 -0.6524202 -0.45010072 0.65330637 0.48539284
0.26183403 0.55920583 -0.27475446 0.46530432 -0.62146145 0.63029957 0.65330637 0.05375593
0.2955797 0.042295013 0.23720308 0.92610526 0.26487452 -0.26864567 0.60195667 0.05186814
0.2618339 0.55920583 0.2268032 0.609719 -0.6524202 -0.45010072 0.62728745 0.49792063
0.2884165 0.006076 0.28642425 0.33688042 -0.3548857 0.87210536 0.56376165 0.022002518
0.2885086 4.8889742e-05 0.28039712 0.3083892 -0.889381 0.33748713 0.5725692 0.013664365
0.28850877 0.59549594 -0.31514764 0.37336826 0.39421833 -0.8397547 0.72023493 0.0103764
0.29557973 0.5954249 0.2793533 0.8582678 0.38855246 0.33526626 0.71667755 0.5225037
0.2884165 0.5954249 0.28642434 0.33419225 0.3783057 0.86324996 0.72280526 0.52896667
0.29557982 0.59542495 -0.3065045 0.8766205 0.3855375 -0.28791898 0.988466 0.9946789
0.2879141 0.0066335723 -0.31386515 0.2758218 -0.29600245 -0.9144971 0.9964145 0.4863722
0.28850877 0.59549594 -0.31514764 0.37336826 0.39421833 -0.8397547 0.9958801 0.9946789
0.2884165 0.5954249 0.28642434 0.33419225 0.3783057 0.86324996 0.56490624 0.5291628
0.2955797 0.006076001 0.27935317 0.862898 -0.38154262 0.33140957 0.9085821 0.52302665
0.29557976 0.0066335704 -0.30851418 0.8423142 -0.35531434 -0.4052881 0.9045091 0.012072504
0.27607122 0.5310122 -0.18103129 0.7909587 0.5961194 0.13793509 0.81375825 0.50769114
0.27512446 0.28640604 -0.047471225 0.7137548 -0.48430786 -0.5059644 0.8671069 0.28056687
0.2751244 0.47973415 -0.25114724 0.6958826 -0.10748349 -0.7100666 0.8820076 0.50525045
0.25879252 0.48512524 -0.2578471 0.44818988 0.17242669 -0.8771516 0.88258857 0.51873034
0.2597669 0.11334815 0.23172992 0.536543 -0.0625654 0.8415505 0.7879002 0.035129443
0.25976685 0.54479617 -0.18568106 0.6487142 0.76078457 -0.019412378 0.8022349 0.5178791
0.2597669 0.11334815 0.23172992 0.536543 -0.0625654 0.8415505 0.79645574 0.028583936
0.2751245 0.050002366 0.16428655 0.6519318 -0.7470862 -0.12979658 0.8704337 0.02299301
0.2760713 0.118248396 0.22148809 0.77120113 0.14714819 0.61935157 0.8006133 0.042896703
0.25879258 0.28914824 -0.051613532 0.06179416 -0.7012383 -0.7102439 0.8803524 0.28421864
-0.25538334 0.04229501 0.25511417 0.54599446 0.63541484 0.5460201 0.46782905 0.082779095
0.2461743 0.55920583 0.25511432 -0.5459946 -0.63541496 0.5460198 0.020018738 0.53058946
-0.2553833 0.55920583 0.25511426 0.5460124 -0.63541406 0.546003 0.020018738 0.082779095
0.2884165 0.006076 0.28642425 0.33688042 -0.3548857 0.87210536 0.90451074 0.012061171
-0.2974413 4.8940965e-05 0.28039706 -0.30477434 -0.8911555 0.33608723 0.9008661 0.52566105
0.2885086 4.8889742e-05 0.28039712 0.3083892 -0.889381 0.33748713 0.897921 0.009594453
0.2461743 0.042294987 0.28642425 -0.2967747 0.34537858 0.8903025 0.5332609 0.054403663
-0.2975334 0.5954248 0.28642428 -0.32764044 0.37681252 0.8664088 0.716562 0.5222462
0.2461743 0.55920583 0.28642437 -0.29677892 -0.3453724 0.8903033 0.6803106 0.053614356
0.2884165 0.5954249 0.28642434 0.33419225 0.3783057 0.86324996 0.71618104 0.016483862
-0.29753342 0.0060759857 0.2864242 -0.34051493 -0.3567474 0.8699316 0.50252944 0.0146325575
-0.2553833 0.55920583 0.2864243 0.2967733 -0.3453781 0.8903031 0.03658802 0.047238868
-0.2975334 0.5954248 0.28642428 -0.32764044 0.37681252 0.8664088 0.006155289 0.016574629
0.2461743 0.042294987 0.28642425 -0.2967747 0.34537858 0.8903025 0.94213015 0.048389286
-0.25538334 0.04229501 0.25511417 0.54599446 0.63541484 0.5460201 0.971863 0.48587036
-0.25538334 0.042295 0.2864242 0.29677895 0.34537157 0.89030373 0.945761 0.48580095
0.2461743 0.55920583 0.28642437 -0.29677892 -0.3453724 0.8903033 0.5341737 0.49957204
0.2461743 0.042294994 0.25511423 -0.5460125 0.6354139 0.54600316 0.5100469 0.054403663
-0.2553833 0.55920583 0.2864243 0.2967733 -0.3453781 0.8903031 0.680822 0.48505643
0.2461743 0.55920583 0.25511432 -0.5459946 -0.63541496 0.5460198 0.6531271 0.054234773
-0.25538334 0.042295 0.2864242 0.29677895 0.34537157 0.89030373 0.4714156 0.046042178
-0.2553833 0.55920583 0.25511426 0.5460124 -0.63541406 0.546003 0.036287464 0.0713731
-0.30460447 0.0060759876 0.2793531 -0.86245376 -0.3851664 0.32836017 0.5024945 0.007215832
-0.2974413 4.8940965e-05 0.28039706 -0.30477434 -0.8911555 0.33608723 0.50908905 0.005222652
-0.30460447 0.5949873 0.2798397 -0.862817 0.36670738 0.34795472 0.72299755 0.52893746
-0.30460447 0.5949873 0.2798397 -0.862817 0.36670738 0.34795472 0.006043295 0.009620298
-0.29753342 0.0060759857 0.2864242 -0.34051493 -0.3567474 0.8699316 0.9086471 0.5230563
0.16285113 0.5310122 0.26691574 -0.13793617 0.59611934 0.79095846 0.8148415 0.5081281
0.029291023 0.286406 0.26596892 0.50596344 -0.4843082 0.71375525 0.86819017 0.28100386
0.23296708 0.47973406 0.26596892 0.7100664 -0.107483864 0.69588286 0.88309085 0.5056874
0.23966698 0.48512524 0.24963705 0.8771512 0.17242709 0.44819033 0.8836718 0.5191673
-0.24991018 0.113348156 0.2506114 -0.8415508 -0.06256607 0.5365425 0.78898346 0.03556642
0.16750093 0.54479617 0.25061134 0.019411836 0.7607843 0.6487143 0.80208015 0.5185975
-0.24991018 0.113348156 0.2506114 -0.8415508 -0.06256607 0.5365425 0.7964025 0.02881428
-0.1824668 0.05000237 0.26596895 0.12979755 -0.74708587 0.651932 0.87151694 0.023429986
-0.23966832 0.118248396 0.2669158 -0.61935174 0.14714877 0.7712007 0.80169654 0.04333368
0.03343335 0.2891482 0.24963708 0.7102429 -0.70123905 0.06179658 0.8804283 0.28445417
-0.25519896 0.55927694 -0.2838377 0.5460021 -0.6354237 -0.5460022 0.018072214 0.9866961
-0.25519902 0.04236617 -0.28383783 0.546005 0.6354052 -0.5460208 0.7817419 0.04716014
-0.25519896 0.55927694 -0.2838377 0.5460021 -0.6354237 -0.5460022 0.7807375 0.04771407
0.2463587 0.55927694 -0.28383765 -0.5460049 -0.635405 -0.5460211 0.47118583 0.069136284
0.24635863 0.042366125 -0.28383777 -0.546002 0.63542384 -0.546002 0.4715254 0.06926427
-0.17652561 0.5448673 -0.27933472 -0.01941363 0.7607848 -0.6487137 0.8107325 0.52320915
0.17859997 0.043192387 -0.2783607 0.07870707 -0.90954775 -0.40807855 0.8702745 0.008318495
-0.24869163 0.48519632 -0.27836046 -0.8771509 0.17242745 -0.44819078 0.8956225 0.51120085
0.17859997 0.043192387 -0.2783607 0.07870707 -0.90954775 -0.40807855 0.88378155 0.016207743
-0.27329442 0.55082786 -0.27273262 -0.5460032 -0.635414 0.54601246 0.48031822 0.9873378
-0.30460444 0.59454995 -0.30902267 -0.85686755 0.35262063 -0.3760807 0.988466 0.9946789
-0.27329448 0.5508278 0.24417816 -0.5460221 -0.63541394 -0.5459937 0.96949315 0.047790676
-0.27329442 0.55082786 -0.27273262 -0.5460032 -0.635414 0.54601246 0.93400145 0.9636556
-0.27329445 0.049270198 -0.27273273 -0.546022 0.63541394 0.5459937 0.65330637 0.48539284
-0.2732945 0.049270112 0.24417807 -0.546003 0.635414 -0.5460126 0.62517864 0.05175835
-0.2678172 0.54432046 -0.198652 -0.4063934 0.9078927 -0.10283633 0.89453924 0.51120085
-0.2678174 0.11702876 0.24335183 -0.4311242 -0.12788978 0.8931831 0.8837315 0.016446166
-0.25519904 0.03135903 -0.27273273 0.54600966 -0.6354111 0.54600924 0.020018738 0.53058946
-0.25519904 4.9012193e-05 -0.27273273 0.26548052 -0.9268442 0.2654805 0.5341737 0.49957204
0.2885086 4.8889742e-05 0.28039712 0.3083892 -0.889381 0.33748713 0.50252944 0.0146325575
-0.2551991 0.031358946 0.24417807 0.5459934 -0.63543856 -0.54599357 0.9694595 0.04782343
0.2463586 0.03135899 -0.27273268 -0.5460001 -0.63543546 0.5459906 0.65333945 0.48548797
0.24635854 0.031358905 0.24417813 -0.5460033 -0.63541406 -0.54601234 0.4715254 0.06926427
-0.17652567 0.035861984 -0.25832304 -0.019437382 -0.64871824 -0.76078045 0.8107325 0.5236461
-0.24869172 0.03683629 -0.1986521 -0.88715625 -0.4431392 -0.12876901 0.8956225 0.5116378
0.17859991 0.03683602 0.24335183 0.09136264 -0.42530122 0.9004286 0.88378155 0.01664472
0.24617434 0.57031095 -0.2728036 -0.54600334 0.63541406 0.5460123 0.018072214 0.9866961
0.24617428 0.5703109 0.2441072 -0.5459999 0.6354355 -0.54599065 0.7817419 0.04716014
0.24617434 0.57031095 -0.2728036 -0.54600334 0.63541406 0.5460123 0.7807375 0.04771407
-0.25538328 0.57031095 -0.27280366 0.54600006 0.63543534 0.5459908 0.47118583 0.069136284
-0.25538334 0.57031095 0.24410714 0.5460034 0.63541424 -0.546012 0.4715254 0.06926427
0.16750094 0.565808 -0.25839397 0.019437078 0.6487174 -0.7607811 0.8107325 0.52320915
0.23966697 0.5648337 -0.19872302 0.88715625 0.44313934 -0.12876882 0.8956225 0.51120085
-0.18762471 0.56483376 0.2432809 -0.091362715 0.42529997 0.9004293 0.88378155 0.016207743
0.26183403 0.55920583 -0.27475446 0.46530432 -0.62146145 0.63029957 0.48031822 0.9873378
0.26183397 0.042295095 -0.27475452 0.46532232 0.6214497 0.6302979 0.96949315 0.047790676
0.26183403 0.55920583 -0.27475446 0.46530432 -0.62146145 0.63029957 0.93400145 0.9636556
0.26183388 0.042294998 0.22680312 0.60970604 0.65243226 -0.45010072 0.62517864 0.05175835
0.25976685 0.54479617 -0.18568106 0.6487142 0.76078457 -0.019412378 0.8096492 0.52320915
0.2587926 0.04312126 0.16944444 0.40807706 -0.9095484 0.07870792 0.8691912 0.008318495
0.25879252 0.48512524 -0.2578471 0.44818988 0.17242669 -0.8771516 0.89453924 0.51120085
0.2587926 0.04312126 0.16944444 0.40807706 -0.9095484 0.07870792 0.8837315 0.016446166
0.2461743 0.042294994 0.25511423 -0.5460125 0.6354139 0.54600316 0.46782905 0.53058946
0.2461743 0.042294994 0.25511423 -0.5460125 0.6354139 0.54600316 0.9694595 0.04782343
0.2461743 0.55920583 0.25511432 -0.5459946 -0.63541496 0.5460198 0.5100469 0.49934405
-0.2553833 0.55920583 0.25511426 0.5460124 -0.63541406 0.546003 0.65333945 0.48548797
-0.25538334 0.04229501 0.25511417 0.54599446 0.63541484 0.5460201 0.4715254 0.06926427
0.16750093 0.54479617 0.25061134 0.019411836 0.7607843 0.6487143 0.8107325 0.5236461
-0.1876247 0.043121263 0.24963711 -0.07870683 -0.9095482 0.40807766 0.8702745 0.0087554725
0.23966698 0.48512524 0.24963705 0.8771512 0.17242709 0.44819033 0.8956225 0.5116378
-0.1876247 0.043121263 0.24963711 -0.07870683 -0.9095482 0.40807766 0.88378155 0.01664472
3 0 1 2
3 3 4 5
3 6 7 8
3 9 10 11
3 12 13 14
3 15 16 4
3 17 18 7
3 19 20 10
3 12 21 22
3 23 24 25
3 26 23 25
3 27 23 28
3 29 30 31
3 32 25 24
3 31 30 24
3 30 32 24
3 33 34 35
3 36 37 38
3 39 40 41
3 42 43 44
3 45 46 47
3 37 48 38
3 49 50 40
3 51 52 43
3 39 5 53
3 39 3 5
3 42 54 55
3 45 56 57
3 58 59 60
3 61 60 62
3 63 58 64
3 65 66 67
3 68 60 59
3 66 69 59
3 69 68 59
3 70 71 72
3 54 73 55
3 74 75 76
3 77 78 79
3 80 81 82
3 73 83 84
3 85 86 75
3 78 87 79
3 74 21 88
3 21 76 22
3 89 77 90
3 80 91 92
3 93 94 95
3 96 93 95
3 97 93 98
3 99 100 101
3 102 95 94
3 100 103 94
3 103 102 94
3 104 105 106
3 107 108 109
3 110 111 112
3 113 114 115
3 116 117 118
3 119 120 108
3 121 122 111
3 123 124 114
3 110 125 126
3 125 112 127
3 128 115 129
3 116 130 131
3 132 133 134
3 135 132 134
3 136 132 137
3 138 139 140
3 141 134 133
3 139 142 133
3 142 141 133
3 143 144 145
3 146 147 148
3 149 150 151
3 152 153 154
3 155 156 157
3 147 158 148
3 151 159 160
3 161 162 153
3 152 163 164
3 165 107 149
3 166 109 167
3 109 149 107
3 168 169 170
3 152 171 163
3 155 172 173
3 174 175 176
3 177 174 176
3 178 174 179
3 180 181 182
3 183 176 175
3 182 181 175
3 181 183 175
3 184 185 186
3 187 188 189
3 171 190 163
3 191 192 193
3 194 195 196
3 197 198 199
3 200 201 190
3 202 203 192
3 204 205 195
3 194 206 207
3 191 130 208
3 191 131 130
3 194 209 206
3 197 210 187
3 211 212 213
3 214 211 213
3 215 211 216
3 217 218 219
3 220 213 212
3 219 218 212
3 218 220 212
3 0 221 1
3 3 15 4
3 6 17 7
3 9 19 10
3 12 222 13
3 15 223 16
3 17 224 18
3 19 225 20
3 12 14 21
3 23 31 24
3 26 226 23
3 27 31 23
3 29 227 30
3 32 228 25
3 30 229 32
3 33 230 34
3 36 231 37
3 39 49 40
3 42 51 43
3 45 232 46
3 37 233 48
3 49 234 50
3 51 235 52
3 39 41 3
3 42 44 54
3 45 47 56
3 58 66 59
3 61 58 60
3 63 66 58
3 65 69 66
3 68 236 60
3 69 237 68
3 70 238 71
3 54 239 73
3 74 85 75
3 77 240 78
3 80 241 81
3 73 239 83
3 85 242 86
3 78 243 87
3 21 74 76
3 89 240 77
3 80 82 91
3 93 100 94
3 96 244 93
3 97 100 93
3 99 103 100
3 102 245 95
3 103 246 102
3 104 247 105
3 107 119 108
3 110 121 111
3 113 123 114
3 116 248 117
3 119 249 120
3 121 250 122
3 123 251 124
3 125 110 112
3 128 113 115
3 116 118 130
3 132 139 133
3 135 252 132
3 136 139 132
3 138 142 139
3 141 253 134
3 142 254 141
3 143 255 144
3 146 168 147
3 149 166 150
3 152 161 153
3 155 256 156
3 147 257 158
3 151 150 159
3 161 258 162
3 109 166 149
3 168 146 169
3 152 154 171
3 155 157 172
3 174 182 175
3 177 259 174
3 178 182 174
3 180 260 181
3 183 261 176
3 181 262 183
3 184 263 185
3 187 210 188
3 171 200 190
3 191 202 192
3 194 204 195
3 197 264 198
3 200 265 201
3 202 266 203
3 204 267 205
3 191 193 131
3 194 196 209
3 197 199 210
3 211 219 212
3 214 268 211
3 215 219 211
3 217 269 218
3 220 270 213
3 218 271 220
